<svg width="127" height="36" viewBox="0 0 127 36" fill="none" xmlns="http://www.w3.org/2000/svg">
<path d="M20.1088 20.2801H29.6641C29.7339 20.2802 29.8025 20.262 29.8629 20.2271C29.9234 20.1923 29.9736 20.1421 30.0085 20.0817L33.8493 13.3515C33.8813 13.2915 33.8974 13.2242 33.8959 13.1561C33.8945 13.0881 33.8755 13.0216 33.841 12.963C33.8064 12.9044 33.7573 12.8556 33.6984 12.8214C33.6396 12.7873 33.573 12.7688 33.5049 12.7678H15.8536C15.7838 12.7679 15.7152 12.7496 15.6547 12.7148C15.5943 12.6799 15.5441 12.6298 15.5092 12.5693L12.9584 8.12731C12.9263 8.06727 12.9103 7.99999 12.9117 7.93195C12.9132 7.86391 12.9321 7.7974 12.9667 7.73878C13.0013 7.68017 13.0504 7.63144 13.1092 7.59726C13.1681 7.56308 13.2347 7.5446 13.3027 7.5436H36.9546C37.0244 7.54372 37.093 7.52542 37.1535 7.49058C37.2139 7.45574 37.2641 7.40557 37.299 7.34514L41.1632 0.620818C41.1952 0.560774 41.2113 0.493497 41.2098 0.425459C41.2083 0.35742 41.1894 0.290903 41.1548 0.232291C41.1202 0.173678 41.0712 0.124944 41.0123 0.0907633C40.9535 0.0565827 40.8868 0.0381063 40.8188 0.0371094H0.391109C0.323062 0.0381063 0.256414 0.0565827 0.197566 0.0907633C0.138719 0.124944 0.0896475 0.173678 0.0550659 0.232291C0.0204843 0.290903 0.00155308 0.35742 9.15582e-05 0.425459C-0.00136997 0.493497 0.0146875 0.560774 0.0467203 0.620818L20.2547 35.7951C20.2899 35.8544 20.3398 35.9035 20.3997 35.9376C20.4596 35.9717 20.5273 35.9897 20.5962 35.9897C20.6651 35.9897 20.7328 35.9717 20.7927 35.9376C20.8526 35.9035 20.9025 35.8544 20.9377 35.7951L24.7785 29.1116C24.8122 29.052 24.83 28.9846 24.83 28.9161C24.83 28.8476 24.8122 28.7802 24.7785 28.7206L20.0212 20.4377C20.01 20.4224 20.0034 20.4042 20.0022 20.3853C20.001 20.3663 20.0053 20.3475 20.0145 20.3309C20.0237 20.3143 20.0375 20.3007 20.0542 20.2917C20.0709 20.2827 20.0899 20.2787 20.1088 20.2801Z" fill="white"/>
<path d="M66.251 28.476L62.8129 22.4755C62.779 22.4155 62.7298 22.3656 62.6704 22.3307C62.6109 22.2958 62.5433 22.2773 62.4744 22.277H54.7052C54.637 22.2773 54.5701 22.2955 54.511 22.3296C54.452 22.3638 54.4029 22.4129 54.3687 22.4719C54.3345 22.5309 54.3163 22.5978 54.3159 22.666C54.3156 22.7342 54.3331 22.8013 54.3667 22.8607L57.2502 27.9156C57.2838 27.975 57.3013 28.0421 57.3009 28.1103C57.3006 28.1785 57.2824 28.2455 57.2481 28.3045C57.2139 28.3635 57.1648 28.4125 57.1058 28.4467C57.0468 28.4809 56.9798 28.499 56.9116 28.4993H42.4181C42.3499 28.499 42.283 28.4809 42.224 28.4467C42.1649 28.4125 42.1159 28.3635 42.0817 28.3045C42.0474 28.2455 42.0292 28.1785 42.0289 28.1103C42.0285 28.0421 42.046 27.975 42.0796 27.9156L53.923 7.25818C53.9563 7.19942 53.9738 7.13306 53.9738 7.06555C53.9738 6.99804 53.9563 6.93168 53.923 6.87293L50.0764 0.195297C50.0421 0.135909 49.9927 0.0866072 49.9333 0.0523268C49.8739 0.0180464 49.8065 0 49.7379 0C49.6693 0 49.6019 0.0180464 49.5424 0.0523268C49.483 0.0866072 49.4336 0.135909 49.3993 0.195297L29.1796 35.4163C29.146 35.4757 29.1286 35.5428 29.1289 35.611C29.1293 35.6792 29.1475 35.7461 29.1817 35.8051C29.2159 35.8641 29.265 35.9132 29.324 35.9474C29.383 35.9815 29.45 35.9997 29.5182 36H69.905C69.9732 35.9997 70.0402 35.9815 70.0992 35.9474C70.1582 35.9132 70.2073 35.8641 70.2415 35.8051C70.2757 35.7461 70.2939 35.6792 70.2943 35.611C70.2946 35.5428 70.2771 35.4757 70.2435 35.4163L66.251 28.476Z" fill="white"/>
<path d="M79.6295 9.86751V12.2899H83.8789V13.9943H79.6295V17.339H77.5048V8.16309H84.4393V9.86751H79.6295Z" fill="white"/>
<path d="M85.7117 8.97418C85.6003 8.8704 85.5115 8.74481 85.4508 8.60522C85.39 8.46563 85.3587 8.31505 85.3587 8.16282C85.3587 8.0106 85.39 7.86001 85.4508 7.72042C85.5115 7.58083 85.6003 7.45525 85.7117 7.35147C85.9631 7.12761 86.2917 7.01038 86.6281 7.02459C86.9623 7.01075 87.2895 7.12329 87.5445 7.33979C87.6585 7.43658 87.7496 7.55748 87.8111 7.69375C87.8727 7.83003 87.9033 7.97829 87.9006 8.1278C87.9047 8.28607 87.8751 8.44341 87.8137 8.58935C87.7523 8.73529 87.6605 8.86647 87.5445 8.97418C87.2946 9.20124 86.9654 9.32077 86.6281 9.30689C86.2909 9.31951 85.9622 9.20015 85.7117 8.97418ZM85.6066 10.2875H87.6496V17.3387H85.6066V10.2875Z" fill="white"/>
<path d="M95.9557 10.9649C96.2419 11.2786 96.461 11.6476 96.5995 12.0491C96.7381 12.4506 96.7931 12.8762 96.7612 13.2997V17.339H94.7182V13.6149C94.7521 13.1676 94.6213 12.7233 94.3505 12.3658C94.2144 12.2233 94.0488 12.1123 93.8653 12.0407C93.6817 11.9691 93.4847 11.9386 93.2881 11.9513C93.0608 11.9406 92.8337 11.9777 92.6216 12.0601C92.4094 12.1426 92.2169 12.2686 92.0565 12.43C91.7222 12.826 91.5566 13.3374 91.5953 13.8542V17.3565H89.5524V10.2819H91.5078V11.1049C91.7877 10.8016 92.133 10.566 92.5176 10.4162C92.9392 10.2495 93.3893 10.1662 93.8426 10.171C94.2299 10.1564 94.6162 10.2191 94.979 10.3554C95.3418 10.4917 95.6738 10.6989 95.9557 10.9649Z" fill="white"/>
<path d="M98.7518 8.16309H100.877V15.6054H105.476V17.3565H98.7518V8.16309Z" fill="white"/>
<path d="M106.632 8.97418C106.521 8.8704 106.432 8.74481 106.371 8.60522C106.31 8.46563 106.279 8.31505 106.279 8.16282C106.279 8.0106 106.31 7.86001 106.371 7.72042C106.432 7.58083 106.521 7.45525 106.632 7.35147C106.883 7.12761 107.212 7.01038 107.548 7.02459C107.883 7.01075 108.21 7.12329 108.465 7.33979C108.579 7.43658 108.67 7.55748 108.731 7.69375C108.793 7.83003 108.824 7.97829 108.821 8.1278C108.825 8.28607 108.795 8.44341 108.734 8.58935C108.673 8.73529 108.581 8.86647 108.465 8.97418C108.215 9.20124 107.886 9.32077 107.548 9.30689C107.211 9.31951 106.882 9.20015 106.632 8.97418ZM106.527 10.2875H108.564V17.3387H106.521L106.527 10.2875Z" fill="white"/>
<path d="M116.876 10.9649C117.162 11.2786 117.381 11.6476 117.52 12.0491C117.658 12.4506 117.713 12.8762 117.682 13.2997V17.339H115.639V13.6149C115.672 13.1676 115.542 12.7233 115.271 12.3658C115.135 12.2233 114.969 12.1123 114.786 12.0407C114.602 11.9691 114.405 11.9386 114.209 11.9513C113.981 11.9406 113.754 11.9777 113.542 12.0601C113.33 12.1426 113.137 12.2686 112.977 12.43C112.643 12.826 112.477 13.3374 112.516 13.8542V17.3565H110.473V10.2819H112.428V11.1049C112.708 10.8016 113.053 10.566 113.438 10.4162C113.86 10.2495 114.31 10.1662 114.763 10.171C115.15 10.1564 115.537 10.2191 115.899 10.3554C116.262 10.4917 116.594 10.6989 116.876 10.9649Z" fill="white"/>
<path d="M126.478 14.3854H121.143C121.228 14.8051 121.473 15.1754 121.826 15.4186C122.22 15.6827 122.688 15.8155 123.162 15.798C123.495 15.8039 123.825 15.7485 124.137 15.6346C124.434 15.5166 124.704 15.3399 124.931 15.1151L126.017 16.2825C125.647 16.6817 125.194 16.9936 124.689 17.1955C124.184 17.3974 123.641 17.4844 123.098 17.4499C122.367 17.4643 121.642 17.3042 120.985 16.983C120.401 16.6966 119.911 16.249 119.573 15.693C119.237 15.1264 119.065 14.4777 119.076 13.8193C119.067 13.1636 119.237 12.5179 119.567 11.9514C119.888 11.4033 120.355 10.9549 120.915 10.6555C121.503 10.3562 122.153 10.2002 122.812 10.2002C123.472 10.2002 124.122 10.3562 124.709 10.6555C125.262 10.9463 125.72 11.39 126.028 11.9339C126.356 12.524 126.522 13.1909 126.507 13.8659C126.507 13.8659 126.501 14.0469 126.478 14.3854ZM121.691 12.1207C121.368 12.3924 121.16 12.7759 121.108 13.1947H124.61C124.555 12.7786 124.347 12.3979 124.026 12.1265C123.699 11.8549 123.284 11.7118 122.859 11.7237C122.434 11.7101 122.02 11.8512 121.691 12.1207Z" fill="white"/>
<path d="M81.4448 27.2037H78.6489L78.0652 28.5171H77.2888L79.6704 23.2637H80.4175L82.8107 28.5171H82.0227L81.4448 27.2037ZM81.1822 26.62L80.0498 24.04L78.9174 26.62H81.1822Z" fill="white"/>
<path d="M87.0893 27.4195C87.0961 27.5771 87.0633 27.7339 86.994 27.8756C86.9247 28.0174 86.821 28.1395 86.6924 28.2309C86.3417 28.4435 85.9342 28.5434 85.525 28.5169H83.6104V24.536H85.4608C85.8469 24.5155 86.2305 24.6088 86.564 24.8045C86.6899 24.8846 86.7928 24.9962 86.8624 25.1283C86.932 25.2603 86.966 25.4083 86.9609 25.5575C86.9651 25.752 86.9057 25.9426 86.7916 26.1003C86.6706 26.2597 86.5066 26.3812 86.3188 26.4506C86.5451 26.4865 86.7498 26.6059 86.8924 26.7853C87.035 26.9646 87.1053 27.1909 87.0893 27.4195ZM84.305 26.2521H85.3849C85.6055 26.2665 85.8254 26.2136 86.0153 26.1003C86.086 26.0522 86.143 25.9865 86.1808 25.9098C86.2187 25.8331 86.2361 25.7479 86.2313 25.6625C86.2313 25.2734 85.9511 25.0788 85.3907 25.0788H84.3109L84.305 26.2521ZM86.1379 27.8223C86.2125 27.7759 86.273 27.7101 86.3131 27.632C86.3532 27.5538 86.3713 27.4663 86.3655 27.3786C86.3723 27.2909 86.3573 27.2028 86.3216 27.1223C86.2859 27.0418 86.2308 26.9714 86.1612 26.9175C85.9657 26.8021 85.7397 26.7492 85.5133 26.7658H84.3109V27.9332H85.4783C85.7041 27.9554 85.9317 27.9171 86.1379 27.8223Z" fill="white"/>
<path d="M91.187 25.1665H89.7277V28.517H89.0039V25.1665H87.5505V24.5361H91.187V25.1665Z" fill="white"/>
<path d="M92.3894 28.3008C92.0803 28.1325 91.8238 27.882 91.6481 27.577C91.4734 27.2554 91.3819 26.8952 91.3819 26.5292C91.3819 26.1632 91.4734 25.8031 91.6481 25.4815C91.8226 25.1755 92.0794 24.9247 92.3894 24.7577C92.7191 24.5886 93.0843 24.5005 93.4547 24.5005C93.8252 24.5005 94.1903 24.5886 94.52 24.7577C94.8275 24.9261 95.0821 25.1767 95.2555 25.4815C95.4302 25.8031 95.5217 26.1632 95.5217 26.5292C95.5217 26.8952 95.4302 27.2554 95.2555 27.577C95.0812 27.881 94.8268 28.1314 94.52 28.3008C94.1913 28.4731 93.8258 28.5631 93.4547 28.5631C93.0836 28.5631 92.7181 28.4731 92.3894 28.3008ZM94.1406 27.7579C94.3437 27.641 94.5096 27.469 94.6192 27.2618C94.7328 27.0343 94.7919 26.7835 94.7919 26.5292C94.7919 26.2749 94.7328 26.0242 94.6192 25.7967C94.5098 25.5909 94.3437 25.4207 94.1406 25.3063C93.9289 25.1924 93.6922 25.1328 93.4518 25.1328C93.2114 25.1328 92.9747 25.1924 92.763 25.3063C92.5609 25.422 92.3951 25.5918 92.2844 25.7967C92.1686 26.0235 92.1082 26.2745 92.1082 26.5292C92.1082 26.7839 92.1686 27.0349 92.2844 27.2618C92.395 27.4682 92.5607 27.64 92.763 27.7579C92.9741 27.8739 93.211 27.9347 93.4518 27.9347C93.6926 27.9347 93.9295 27.8739 94.1406 27.7579Z" fill="white"/>
<path d="M99.2949 26.7829C99.441 26.9414 99.5187 27.1512 99.5108 27.3667C99.5135 27.5995 99.428 27.8247 99.2715 27.9971C99.0895 28.1933 98.8605 28.3399 98.6061 28.4232C98.3002 28.5288 97.9782 28.5801 97.6546 28.5749C97.3608 28.5753 97.0683 28.536 96.7849 28.4582C96.5179 28.3877 96.2638 28.2754 96.0319 28.1255L96.2479 27.5768C96.4509 27.7018 96.6712 27.7962 96.9017 27.857C97.1451 27.9235 97.3964 27.9569 97.6488 27.9562C97.9318 27.9705 98.2136 27.9101 98.466 27.7811C98.5562 27.7376 98.6324 27.6697 98.686 27.5851C98.7397 27.5005 98.7686 27.4026 98.7695 27.3025C98.771 27.2159 98.749 27.1306 98.7058 27.0555C98.6627 26.9805 98.5999 26.9186 98.5244 26.8763C98.3129 26.7639 98.0747 26.7114 97.8356 26.7246H97.1059V26.2051H97.783C98.0039 26.2166 98.2237 26.1682 98.4193 26.065C98.4903 26.0275 98.5497 25.9712 98.5909 25.9022C98.6321 25.8332 98.6535 25.7542 98.6528 25.6739C98.6525 25.5848 98.6265 25.4978 98.5778 25.4232C98.5291 25.3486 98.4599 25.2897 98.3784 25.2536C98.1477 25.1425 97.893 25.0903 97.6371 25.1019C97.2012 25.1118 96.7728 25.2174 96.3822 25.4112L96.1895 24.8275C96.661 24.5858 97.1832 24.4598 97.713 24.4598C98.0065 24.4552 98.2986 24.5006 98.5769 24.594C98.8008 24.6713 99.0016 24.8038 99.1606 24.9793C99.3057 25.1384 99.3831 25.3478 99.3766 25.563C99.3777 25.7556 99.3093 25.9421 99.1839 26.0883C99.0437 26.2517 98.8623 26.3746 98.6586 26.4444C98.899 26.4933 99.12 26.6109 99.2949 26.7829Z" fill="white"/>
<path d="M103.311 24.9039C103.465 25.063 103.584 25.2529 103.659 25.4612C103.734 25.6694 103.765 25.8913 103.749 26.1122V28.517H103.066V27.9917C102.94 28.1807 102.761 28.3288 102.552 28.4178C102.3 28.5206 102.03 28.5703 101.758 28.5637C101.374 28.5847 100.994 28.4712 100.684 28.2427C100.561 28.1386 100.462 28.0089 100.395 27.8628C100.327 27.7166 100.292 27.5574 100.292 27.3963C100.292 27.2352 100.327 27.076 100.395 26.9299C100.462 26.7837 100.561 26.6541 100.684 26.5499C101.042 26.3065 101.473 26.1931 101.904 26.2289H103.071V26.0888C103.074 25.9481 103.044 25.8086 102.985 25.6811C102.925 25.5537 102.837 25.4415 102.727 25.3533C102.501 25.1736 102.216 25.0841 101.927 25.1024C101.693 25.1028 101.46 25.1422 101.239 25.2191C101.027 25.285 100.829 25.3899 100.655 25.5285L100.351 24.9856C100.57 24.8132 100.82 24.6843 101.087 24.6062C101.382 24.5161 101.689 24.4709 101.997 24.4719C102.234 24.454 102.472 24.483 102.697 24.5571C102.923 24.6312 103.131 24.7491 103.311 24.9039ZM102.593 27.8224C102.793 27.7007 102.947 27.5159 103.031 27.2971V26.7134H101.916C101.305 26.7134 100.999 26.9196 100.999 27.3321C100.998 27.4237 101.019 27.5142 101.06 27.5964C101.1 27.6785 101.16 27.75 101.233 27.8049C101.424 27.9314 101.652 27.9928 101.881 27.98C102.124 27.9924 102.366 27.9379 102.581 27.8224H102.593Z" fill="white"/>
<path d="M105.062 24.536H105.786V27.4546L108.231 24.536H108.885V28.5228H108.161V25.6042L105.727 28.5228H105.062V24.536ZM106.06 23.748C105.954 23.6503 105.871 23.5308 105.817 23.3977C105.763 23.2646 105.738 23.1212 105.745 22.9775H106.229C106.227 23.0619 106.243 23.1458 106.276 23.2234C106.309 23.301 106.359 23.3705 106.422 23.427C106.558 23.5441 106.733 23.6047 106.912 23.5963C107.093 23.605 107.27 23.5445 107.408 23.427C107.471 23.3705 107.521 23.301 107.554 23.2234C107.587 23.1458 107.603 23.0619 107.601 22.9775H108.103C108.11 23.1218 108.085 23.2658 108.03 23.3991C107.974 23.5324 107.889 23.6517 107.782 23.748C107.535 23.9384 107.229 24.0337 106.918 24.0165C106.603 24.0383 106.291 23.9426 106.042 23.748H106.06Z" fill="white"/>
<path d="M114.85 24.5361V28.5229H114.197V25.6043L112.708 28.0617H112.393L110.899 25.6043V28.5229H110.257V24.5361H111.004L112.568 27.227L114.179 24.5361H114.85Z" fill="white"/>
</svg>
