<svg width="33" height="13" fill="none" xmlns="http://www.w3.org/2000/svg"><path d="M7.92 11.9V9.772H3.712L5.904 7.58c1.232-1.232 1.84-2.416 1.84-3.584 0-1.072-.368-1.936-1.088-2.56-.72-.64-1.6-.96-2.608-.96-1.584 0-2.992.832-3.696 2.368l1.856 1.088c.4-.88 1.024-1.312 1.872-1.312.848 0 1.456.576 1.456 1.456 0 .592-.432 1.344-1.28 2.24L.432 10.252V11.9H7.92zm5.464.224c1.408 0 2.512-.528 3.296-1.584.784-1.072 1.184-2.48 1.184-4.24 0-1.76-.4-3.168-1.184-4.224-.784-1.072-1.888-1.6-3.296-1.6-1.392 0-2.496.528-3.296 1.6C9.304 3.132 8.904 4.54 8.904 6.3c0 1.76.4 3.168 1.184 4.24.8 1.056 1.904 1.584 3.296 1.584zM15.672 6.3c0 2.368-.8 3.664-2.288 3.664-1.488 0-2.272-1.28-2.272-3.664 0-2.384.784-3.68 2.272-3.68 1.488 0 2.288 1.296 2.288 3.68zm2.613-4.56l.544 1.888 2.112-.592V11.9h2.208V.7h-1.92l-2.944 1.04zm9.34 3.04l.144-2.016h4.304V.7H25.72l-.448 6.224h3.392c1.072 0 1.728.608 1.728 1.52 0 .944-.656 1.52-1.792 1.52-1.072 0-1.744-.448-2.016-1.344l-1.888 1.104c.624 1.584 2.096 2.4 3.904 2.4 1.12 0 2.064-.32 2.832-.976.784-.656 1.168-1.552 1.168-2.704 0-1.152-.368-2.048-1.104-2.688-.736-.656-1.648-.976-2.72-.976h-1.152z" fill="#243242"/></svg>