<svg width="33" height="13" fill="none" xmlns="http://www.w3.org/2000/svg"><path d="M7.92 11.9V9.772H3.712L5.904 7.58c1.232-1.232 1.84-2.416 1.84-3.584 0-1.072-.368-1.936-1.088-2.56-.72-.64-1.6-.96-2.608-.96-1.584 0-2.992.832-3.696 2.368l1.856 1.088c.4-.88 1.024-1.312 1.872-1.312.848 0 1.456.576 1.456 1.456 0 .592-.432 1.344-1.28 2.24L.432 10.252V11.9H7.92zm5.464.224c1.408 0 2.512-.528 3.296-1.584.784-1.072 1.184-2.48 1.184-4.24 0-1.76-.4-3.168-1.184-4.224-.784-1.072-1.888-1.6-3.296-1.6-1.392 0-2.496.528-3.296 1.6C9.304 3.132 8.904 4.54 8.904 6.3c0 1.76.4 3.168 1.184 4.24.8 1.056 1.904 1.584 3.296 1.584zM15.672 6.3c0 2.368-.8 3.664-2.288 3.664-1.488 0-2.272-1.28-2.272-3.664 0-2.384.784-3.68 2.272-3.68 1.488 0 2.288 1.296 2.288 3.68zm2.613-4.56l.544 1.888 2.112-.592V11.9h2.208V.7h-1.92l-2.944 1.04zm13.02 4.336c.784-.56 1.168-1.328 1.168-2.32 0-1.04-.352-1.84-1.04-2.416C30.745.764 29.88.476 28.84.476s-1.904.288-2.608.864c-.688.576-1.04 1.376-1.04 2.416 0 .976.384 1.76 1.168 2.32-1.024.624-1.536 1.52-1.536 2.704 0 2.064 1.52 3.344 4.016 3.344 2.48 0 4.016-1.28 4.016-3.344 0-1.184-.512-2.08-1.552-2.704zM29.88 2.908c.272.24.4.56.4.96 0 .4-.128.736-.4.976s-.608.352-1.04.352c-.432 0-.768-.112-1.04-.352s-.4-.576-.4-.976.128-.72.4-.96.608-.352 1.04-.352c.432 0 .768.112 1.04.352zm.784 5.584c0 .976-.736 1.552-1.824 1.552s-1.824-.576-1.824-1.552c0-.96.736-1.536 1.824-1.536s1.824.576 1.824 1.536z" fill="#243242"/></svg>