<svg width="127" height="36" fill="none" xmlns="http://www.w3.org/2000/svg"><path d="M20.109 20.28h9.555a.396.396 0 00.345-.198l3.84-6.73a.397.397 0 00-.344-.584H15.854a.398.398 0 01-.345-.199l-2.55-4.442a.397.397 0 01.344-.583h23.652a.397.397 0 00.344-.199L41.163.621a.397.397 0 00-.344-.584H.39a.397.397 0 00-.344.584l20.208 35.174a.397.397 0 00.683 0l3.84-6.683a.397.397 0 000-.391l-4.757-8.283a.1.1 0 01.088-.158zm46.142 8.196l-3.438-6a.391.391 0 00-.339-.199h-7.769a.392.392 0 00-.338.584l2.883 5.055a.39.39 0 01-.338.583H42.418a.39.39 0 01-.338-.583L53.923 7.258a.39.39 0 000-.385L50.076.195a.39.39 0 00-.677 0L29.18 35.416a.392.392 0 00.34.584h40.386a.392.392 0 00.338-.584l-3.992-6.94zM79.63 9.868v2.422h4.249v1.704h-4.25v3.345h-2.124V8.163h6.934v1.705h-4.81zm6.082-.894a1.108 1.108 0 010-1.623c.251-.223.58-.34.916-.326a1.33 1.33 0 01.916.315 1.009 1.009 0 01.357.788 1.116 1.116 0 01-.356.846c-.25.227-.58.347-.917.333a1.296 1.296 0 01-.916-.333zm-.105 1.313h2.043v7.052h-2.043v-7.051zm10.349.678a3.117 3.117 0 01.805 2.335v4.039h-2.043v-3.724a1.839 1.839 0 00-.368-1.25 1.35 1.35 0 00-1.062-.414 1.63 1.63 0 00-1.231.479c-.335.396-.5.907-.462 1.424v3.503h-2.043v-7.075h1.956v.823a2.72 2.72 0 011.01-.689c.421-.167.871-.25 1.325-.245a2.919 2.919 0 012.113.794zm2.796-2.802h2.125v7.442h4.599v1.752h-6.724V8.162zm7.88.811a1.119 1.119 0 01-.353-.811 1.104 1.104 0 01.353-.812c.251-.223.58-.34.916-.326.335-.014.662.098.917.315a.997.997 0 01.266.354 1 1 0 01.09.434 1.124 1.124 0 01-.356.846c-.25.227-.579.347-.917.333a1.294 1.294 0 01-.916-.333zm-.105 1.313h2.037v7.052h-2.043l.006-7.051zm10.349.678a3.128 3.128 0 01.806 2.335v4.039h-2.043v-3.724a1.843 1.843 0 00-.368-1.25 1.352 1.352 0 00-1.062-.414 1.63 1.63 0 00-1.232.479c-.334.396-.5.907-.461 1.424v3.503h-2.043v-7.075h1.955v.823a2.72 2.72 0 011.01-.689c.422-.167.872-.25 1.325-.245a2.915 2.915 0 012.113.794zm9.602 3.42h-5.335c.085.42.33.79.683 1.034.394.264.862.396 1.336.379.333.006.663-.05.975-.163.297-.118.567-.295.794-.52l1.086 1.167a3.666 3.666 0 01-2.919 1.168 4.606 4.606 0 01-2.113-.467 3.41 3.41 0 01-1.412-1.29 3.557 3.557 0 01-.497-1.874 3.613 3.613 0 01.491-1.868 3.444 3.444 0 011.348-1.296 4.182 4.182 0 013.794 0 3.261 3.261 0 011.319 1.279c.328.59.494 1.257.479 1.932 0 0-.006.18-.029.52zm-4.787-2.264a1.672 1.672 0 00-.583 1.074h3.502a1.688 1.688 0 00-.584-1.069 1.75 1.75 0 00-1.167-.402 1.753 1.753 0 00-1.168.397zM81.445 27.204h-2.796l-.584 1.313h-.776l2.381-5.253h.748l2.393 5.253h-.788l-.578-1.313zm-.263-.584l-1.132-2.58-1.133 2.58h2.265zm5.908.8a.945.945 0 01-.398.81c-.35.213-.758.313-1.167.287H83.61v-3.981h1.85c.387-.02.77.073 1.104.268a.858.858 0 01.397.754.893.893 0 01-.17.542 1.05 1.05 0 01-.472.35.916.916 0 01.77.97zm-2.785-1.168h1.08c.22.015.44-.038.63-.152a.495.495 0 00.216-.438c0-.389-.28-.583-.84-.583h-1.08l-.006 1.173zm1.833 1.57a.485.485 0 00.227-.443.531.531 0 00-.204-.462 1.114 1.114 0 00-.648-.151h-1.202v1.167h1.167a1.28 1.28 0 00.66-.11zm5.049-2.656h-1.46v3.351h-.723v-3.35H87.55v-.63h3.637v.63zM92.39 28.3a1.91 1.91 0 01-.742-.723 2.195 2.195 0 010-2.096 1.88 1.88 0 01.741-.723 2.334 2.334 0 012.131 0c.308.168.562.419.736.724a2.195 2.195 0 010 2.095 1.915 1.915 0 01-.736.724 2.294 2.294 0 01-2.13 0zm1.75-.542c.204-.117.37-.289.48-.496a1.64 1.64 0 000-1.465 1.22 1.22 0 00-.48-.49 1.454 1.454 0 00-1.377 0 1.25 1.25 0 00-.479.49 1.61 1.61 0 000 1.465c.111.206.277.378.479.496a1.43 1.43 0 001.378 0zm5.155-.975a.817.817 0 01.216.584.922.922 0 01-.24.63 1.577 1.577 0 01-.665.426 2.779 2.779 0 01-.951.152c-.294 0-.587-.039-.87-.117a2.618 2.618 0 01-.753-.332l.216-.55a2.4 2.4 0 00.654.281c.243.067.494.1.747.1.283.014.565-.047.817-.176a.536.536 0 00.303-.479.479.479 0 00-.245-.426 1.314 1.314 0 00-.688-.151h-.73v-.52h.677c.22.012.44-.037.636-.14a.438.438 0 00.234-.391.461.461 0 00-.275-.42 1.547 1.547 0 00-.74-.152c-.437.01-.865.115-1.256.31l-.193-.584a3.34 3.34 0 011.524-.368c.294-.005.586.04.864.134.224.077.425.21.584.385a.83.83 0 01.216.584.8.8 0 01-.193.525c-.14.164-.322.287-.525.356.24.05.461.167.636.339zm4.016-1.879a1.564 1.564 0 01.438 1.208v2.405h-.683v-.525a1.168 1.168 0 01-.514.426 1.974 1.974 0 01-.794.146 1.658 1.658 0 01-1.074-.321 1.098 1.098 0 01-.392-.847 1.105 1.105 0 01.392-.846 1.892 1.892 0 011.22-.321h1.167v-.14a.925.925 0 00-.344-.736 1.167 1.167 0 00-.8-.25c-.234 0-.467.04-.688.116a1.79 1.79 0 00-.584.31l-.304-.543a2.18 2.18 0 01.736-.38c.295-.09.602-.135.91-.134a1.804 1.804 0 011.314.432zm-.718 2.918c.2-.121.354-.306.438-.525v-.584h-1.115c-.611 0-.917.207-.917.62a.578.578 0 00.234.472c.191.126.419.188.648.175.243.012.485-.042.7-.158h.012zm2.469-3.286h.724v2.919l2.445-2.919h.654v3.987h-.724v-2.919l-2.434 2.919h-.665v-3.987zm.998-.788a.975.975 0 01-.315-.77h.484a.593.593 0 00.193.449.7.7 0 00.49.17.712.712 0 00.496-.17.577.577 0 00.193-.45h.502a.981.981 0 01-.073.422.981.981 0 01-.248.349c-.247.19-.553.286-.864.268a1.28 1.28 0 01-.876-.268h.018zm8.79.788v3.987h-.653v-2.919l-1.489 2.458h-.315l-1.494-2.458v2.919h-.642v-3.987h.747l1.564 2.691 1.611-2.69h.671z" fill="#fff"/></svg>